<mxfile host="app.diagrams.net" modified="2024-07-16T03:59:59.668Z" agent="Mozilla/5.0 (Macintosh; Intel Mac OS X 10_15_7) AppleWebKit/537.36 (KHTML, like Gecko) Chrome/126.0.0.0 Safari/537.36" version="24.4.7" etag="Y5nMGHfQdedObcqHuXOi" type="github">
  <diagram name="第 1 页" id="VjzgC8Z70fxgnLFed5BR">
    <mxGraphModel>
      <root>
        <mxCell id="0" />
        <mxCell id="1" parent="0" />
      </root>
    </mxGraphModel>
  </diagram>
</mxfile>
